<?xml version="1.0" encoding="utf-8"?>
<!-- Generator: Adobe Illustrator 20.0.0, SVG Export Plug-In . SVG Version: 6.00 Build 0)  -->
<svg version="1.1" id="Layer_1" xmlns="http://www.w3.org/2000/svg" xmlns:xlink="http://www.w3.org/1999/xlink" x="0px" y="0px"
	 viewBox="0 0 432 432" style="enable-background:new 0 0 432 432;" xml:space="preserve">
<g>
	<path d="M224.3,18.2c20,0,39.8,3,59,9c19,5.9,36.9,14.7,53.2,25.9c34,23.4,59.4,56.3,73.6,95.2c9.1,25.1,13.1,51.2,11.7,77.6
		c-1.3,25.5-7.5,50.3-18.3,73.5s-25.8,43.9-44.6,61.3c-19.4,18-41.9,31.8-67,40.9c-21.8,7.9-44.6,12-67.6,12c-20,0-39.8-3-59-9
		c-19-5.9-36.9-14.7-53.2-25.9c-34-23.4-59.4-56.3-73.6-95.2c-9.1-25.1-13.1-51.2-11.7-77.6c1.3-25.5,7.5-50.3,18.3-73.5
		C56,109.2,71,88.5,89.7,71.1c19.4-18,41.9-31.8,67-40.9C178.5,22.3,201.3,18.2,224.3,18.2L224.3,18.2 M224.3,8.2
		c-23.6,0-47.6,4-71,12.6C45.5,60.1-10.1,179.2,29.1,287c30.7,84.3,110.4,136.7,195.2,136.7c23.6,0,47.6-4,71-12.6
		C403.1,371.9,458.7,252.8,419.5,145C388.8,60.6,309.1,8.2,224.3,8.2L224.3,8.2z"/>
</g>
<polygon points="399.2,146.5 365.6,130.8 302.9,265.3 219,34.6 0,114.3 12.6,149 125,108.1 196.4,304.1 61.1,241 45.4,274.5 
	261.6,375.4 159.8,95.5 196.9,82 298.7,361.9 "/>
<rect x="265.7" y="354.3" transform="matrix(0.4226 -0.9063 0.9063 0.4226 -172.3815 466.5994)" width="28.6" height="28.6"/>
<g>
</g>
<g>
</g>
<g>
</g>
<g>
</g>
<g>
</g>
<g>
</g>
</svg>
